<svg xmlns="http://www.w3.org/2000/svg" viewBox="0 0 416 416" fill="#ffffff">
  <!-- Golf ball circle centered (tee removed) -->
  <path d="M0 208C0 93.1 93.1 0 208 0s208 93.1 208 208c0 74.2-39 139.2-97.5 176H97.5C39 347.2 0 282.2 0 208zm180.1 43.9c18.3 0 33.1-14.8 33.1-33.1 0-14.4-9.3-26.3-22.1-30.9 9.6 26.8-15.6 51.3-41.9 41.9 4.6 12.8 16.5 22.1 30.9 22.1zm49.1 46.9c0-14.4-9.3-26.3-22.1-30.9 9.6 26.8-15.6 51.3-41.9 41.9 4.6 12.8 16.5 22.1 30.9 22.1 18.3 0 33.1-14.9 33.1-33.1zm64-64c0-14.4-9.3-26.3-22.1-30.9 9.6 26.8-15.6 51.3-41.9 41.9 4.6 12.8 16.5 22.1 30.9 22.1 18.3 0 33.1-14.9 33.1-33.1z"/>
</svg>